<?xml version="1.0" encoding="UTF-8" standalone="no"?>
<!-- Created with Inkscape (http://www.inkscape.org/) -->

<svg
   width="169.40753mm"
   height="169.40753mm"
   viewBox="0 0 169.40753 169.40753"
   version="1.1"
   id="svg5"
   inkscape:export-filename="/home/aneto/SynologyDrive/Trabalho/anetopt/srnetochan.github.io/assets/images/site/globe.png"
   inkscape:export-xdpi="300.01099"
   inkscape:export-ydpi="300.01099"
   inkscape:version="1.1.2 (1:1.1+202202050852+0a00cf5339)"
   sodipodi:docname="globe.svg"
   xmlns:inkscape="http://www.inkscape.org/namespaces/inkscape"
   xmlns:sodipodi="http://sodipodi.sourceforge.net/DTD/sodipodi-0.dtd"
   xmlns="http://www.w3.org/2000/svg"
   xmlns:svg="http://www.w3.org/2000/svg">
  <sodipodi:namedview
     id="namedview7"
     pagecolor="#ffffff"
     bordercolor="#666666"
     borderopacity="1.0"
     inkscape:pageshadow="2"
     inkscape:pageopacity="0.0"
     inkscape:pagecheckerboard="0"
     inkscape:document-units="mm"
     showgrid="false"
     fit-margin-top="10"
     fit-margin-left="10"
     fit-margin-right="10"
     fit-margin-bottom="10"
     inkscape:zoom="0.74920735"
     inkscape:cx="360.38087"
     inkscape:cy="383.07152"
     inkscape:window-width="2560"
     inkscape:window-height="1013"
     inkscape:window-x="1920"
     inkscape:window-y="0"
     inkscape:window-maximized="1"
     inkscape:current-layer="layer1" />
  <defs
     id="defs2" />
  <g
     inkscape:label="Layer 1"
     inkscape:groupmode="layer"
     id="layer1"
     transform="translate(-19.522682,-56.668518)">
    <circle
       style="fill:#1b1d1e;stroke-width:0.965999;fill-opacity:1"
       id="path1215"
       cx="104.22645"
       cy="141.37228"
       r="74.703766"
       inkscape:export-filename="/home/aneto/SynologyDrive/Trabalho/anetopt/srnetochan.github.io/assets/images/site/globe.png"
       inkscape:export-xdpi="300.01099"
       inkscape:export-ydpi="300.01099" />
    <path
       style="fill:#ffffff;stroke-width:0.264583"
       d="m 99.098033,209.03517 c -16.29887,-1.52781 -30.22045,-7.7739 -41.70191,-18.71008 -5.65137,-5.38297 -10.60767,-12.13867 -14.00649,-19.0916 -3.23981,-6.62764 -5.13014,-12.62607 -6.2535,-19.84375 -0.82654,-5.31061 -0.82578,-14.5426 0.002,-19.84375 1.14287,-7.32212 2.98205,-13.15778 6.25402,-19.84375 4.23394,-8.65168 10.65985,-16.709572 18.23993,-22.872342 5.20963,-4.23554 13.02765,-8.69296 19.24051,-10.96992 5.92297,-2.17072 13.24669,-3.64681 19.938677,-4.01862 l 3.31421,-0.18414 v 4.00741 4.00741 h -1.40925 c -2.47267,0 -7.087237,0.5413 -10.497007,1.23132 -8.94803,1.81079 -18.09628,6.09337 -25.53147,11.95209 -2.73395,2.15428 -7.93394,7.502592 -10.0822,10.369812 -16.3654,21.84233 -16.3654,50.61086 0,72.48937 3.98414,5.3263 10.818,11.42397 16.85897,15.04279 27.352787,16.3856 62.673737,8.35278 80.480857,-18.30324 4.01192,-6.00557 7.3569,-14.0742 8.76772,-21.14922 0.67154,-3.3676 1.20821,-7.99955 1.20821,-10.42784 v -1.40925 h 4.00741 4.00742 l -0.18415,3.3142 c -0.37228,6.70048 -1.85324,14.04228 -4.02195,19.93868 -2.28548,6.21388 -6.76422,14.07169 -10.96659,19.24051 -9.13041,11.23022 -21.8891,19.47372 -35.65149,23.03471 -5.3028,1.3721 -9.70794,1.95088 -15.66356,2.058 -2.83766,0.051 -5.695167,0.0426 -6.350007,-0.0188 z m 8.995837,-31.96642 v -15.75713 h 8.99583 c 4.94771,0 8.99584,0.0681 8.99584,0.15141 0,0.0833 -0.36766,1.83946 -0.81701,3.90261 -1.56083,7.16626 -4.17533,13.87216 -7.2613,18.62435 -2.03288,3.13051 -5.50731,6.53499 -7.99513,7.83417 l -1.91823,1.00173 z m -10.154767,14.60569 c -5.48699,-2.97628 -10.75747,-11.14966 -13.65017,-21.16848 -0.64242,-2.22501 -2.12423,-8.54334 -2.12423,-9.05756 0,-0.0752 4.04813,-0.13678 8.99583,-0.13678 h 8.995837 v 15.61041 c 0,12.31571 -0.0698,15.60893 -0.330727,15.60337 -0.1819,-0.004 -1.03084,-0.38681 -1.88654,-0.85096 z m -17.12648,-3.98166 c -10.14007,-5.16445 -19.10091,-14.39382 -23.63502,-24.34326 l -0.9287,-2.0379 h 8.92899 8.929 l 0.71364,3.78485 c 1.53519,8.1421 4.67269,16.78596 7.98979,22.01202 1.24875,1.96739 1.25725,1.98437 0.99448,1.98437 -0.13377,0 -1.48025,-0.63003 -2.99218,-1.40008 z m 43.571087,1.0977 c 0.11909,-0.19749 0.63181,-1.01213 1.13938,-1.81032 3.42109,-5.3799 6.89015,-15.35002 8.26382,-23.75031 l 0.31368,-1.91823 h 8.95037 8.95038 l -0.9287,2.0379 c -4.45128,9.7677 -13.1388,18.81687 -23.13502,24.09812 -2.86469,1.51348 -3.89054,1.9011 -3.55391,1.34284 z M 53.229863,151.1913 c -1.28871,-6.5077 -1.2011,-14.03152 0.24185,-20.76979 l 0.18414,-0.85989 h 9.76754 9.76755 l -0.20948,2.05052 c -0.1152,1.12778 -0.20947,5.56286 -0.20947,9.85573 0,4.29286 0.0943,8.72794 0.20947,9.85573 l 0.20948,2.05052 h -9.76441 -9.76441 z m 27.70801,-0.13229 c -0.11881,-1.2733 -0.21601,-5.58932 -0.21601,-9.59114 0,-4.00183 0.0972,-8.31784 0.21601,-9.59115 l 0.216,-2.3151 h 9.50125 9.501247 v 11.90625 11.90625 h -9.501247 -9.50125 z m 27.155997,-9.59114 v -11.90625 h 9.50125 9.50125 l 0.21375,2.3151 c 0.27667,2.99643 0.27667,16.18587 0,19.18229 l -0.21375,2.31511 h -9.50125 -9.50125 z m 27.1749,9.85573 c 0.11521,-1.12779 0.20948,-5.56287 0.20948,-9.85573 0,-4.29287 -0.0943,-8.72795 -0.20948,-9.85573 l -0.20947,-2.05052 h 9.76441 9.76441 l 0.43092,2.18281 c 0.237,1.20055 0.54888,3.31391 0.69308,4.69635 0.49423,4.73852 0.24772,9.98483 -0.69308,14.75052 l -0.43092,2.18282 h -9.76441 -9.76441 z m 26.4144,-25.19463 c -0.54988,-2.0552 -0.9411,-3.79541 -0.86939,-3.86712 0.15164,-0.15164 6.80356,-1.952 7.23131,-1.95717 0.2519,-0.003 2.38084,7.36853 2.17359,7.52616 -0.044,0.0335 -1.5683,0.45278 -3.38731,0.93179 -1.81901,0.47902 -3.49655,0.92317 -3.72786,0.98701 -0.33917,0.0936 -0.61408,-0.60719 -1.42034,-3.62067 z M 57.177603,119.58621 c 3.77626,-8.28645 10.66572,-16.15441 18.89776,-21.581792 2.6112,-1.72157 7.57926,-4.34732 7.80266,-4.12392 0.056,0.056 -0.3201,0.75503 -0.83576,1.55344 -1.42655,2.20877 -4.1577,7.997842 -5.24092,11.108932 -1.19497,3.432 -2.57595,8.77436 -3.19742,12.36927 l -0.46884,2.71198 h -8.94309 -8.94309 z m 25.11973,1.17801 c 1.96704,-9.68332 4.39521,-16.35099 7.94568,-21.818482 2.03288,-3.1305 5.50731,-6.53498 7.99513,-7.83416 l 1.918227,-1.00173 v 15.757132 15.75714 h -9.016857 -9.01685 z M 108.09387,106.0137 c 0,-11.262062 0.0818,-15.610412 0.29369,-15.610412 0.76185,0 3.65818,1.869 5.35822,3.45765 5.30438,4.9568 9.2562,13.215002 11.66916,24.385252 0.36883,1.70739 0.6706,3.16591 0.6706,3.24114 0,0.0752 -4.04813,0.13679 -8.99584,0.13679 h -8.99583 z m 25.33584,11.82556 c -1.57045,-8.32909 -4.72548,-16.91629 -8.23196,-22.405322 -0.51003,-0.79841 -0.88199,-1.49699 -0.82657,-1.5524 0.16973,-0.16973 3.57189,1.50679 5.94769,2.93092 8.86555,5.314262 16.72999,13.944152 20.75377,22.773752 l 0.9287,2.03791 h -8.92899 -8.929 z m 22.45692,-5.80629 c -0.94917,-1.63711 -1.79956,-3.17163 -1.88977,-3.41004 -0.12801,-0.33833 0.56909,-0.85281 3.17568,-2.34377 1.83684,-1.05065 3.38048,-1.86762 3.43032,-1.81547 0.17467,0.18276 3.84726,6.53756 3.84726,6.65705 0,0.12165 -6.51441,3.88879 -6.72478,3.88879 -0.0621,0 -0.88954,-1.33945 -1.83871,-2.97656 z m -9.69276,-12.766142 -2.76867,-2.77812 2.76887,-2.77833 2.76888,-2.77833 2.84879,2.83996 2.84879,2.83996 -2.70725,2.71649 c -1.48899,1.494072 -2.77103,2.716492 -2.84899,2.716492 -0.078,0 -1.38765,-1.25015 -2.91042,-2.778122 z m -12.17191,-9.29394 c -1.6729,-0.96433 -3.1398,-1.84235 -3.25978,-1.95117 -0.19092,-0.17316 3.4147,-6.87885 3.69873,-6.87885 0.10545,0 5.66262,3.18334 6.41115,3.67253 0.29204,0.19085 -0.0219,0.91906 -1.54118,3.57524 -1.04936,1.83456 -1.98878,3.33557 -2.08761,3.33557 -0.0988,0 -1.54842,-0.789 -3.22131,-1.75332 z m -14.81559,-6.10399 c -1.81901,-0.50573 -3.33972,-0.95161 -3.37936,-0.99085 -0.0691,-0.0684 1.8124,-7.33134 1.94576,-7.51101 0.0684,-0.0922 7.30837,1.81743 7.4964,1.97729 0.0603,0.0513 -0.21432,1.31389 -0.61032,2.80579 -0.396,1.4919 -0.83689,3.15903 -0.97977,3.70473 -0.17833,0.68115 -0.40173,0.983 -0.71259,0.96288 -0.24906,-0.0161 -1.94111,-0.44309 -3.76012,-0.94883 z"
       id="path938"
       inkscape:export-filename="/home/aneto/SynologyDrive/Trabalho/anetopt/srnetochan.github.io/assets/images/site/inverted-globe.png"
       inkscape:export-xdpi="300.01099"
       inkscape:export-ydpi="300.01099" />
  </g>
</svg>
